<?xml version="1.0" encoding="UTF-8" standalone="no"?>
<!-- Generator: Adobe Illustrator 14.0.0, SVG Export Plug-In . SVG Version: 6.00 Build 43363)  -->

<svg
   xmlns:dc="http://purl.org/dc/elements/1.1/"
   xmlns:cc="http://creativecommons.org/ns#"
   xmlns:rdf="http://www.w3.org/1999/02/22-rdf-syntax-ns#"
   xmlns:svg="http://www.w3.org/2000/svg"
   xmlns="http://www.w3.org/2000/svg"
   xmlns:sodipodi="http://sodipodi.sourceforge.net/DTD/sodipodi-0.dtd"
   xmlns:inkscape="http://www.inkscape.org/namespaces/inkscape"
   version="1.1"
   id="Layer_1"
   x="0px"
   y="0px"
   width="595.28px"
   height="841.89px"
   viewBox="0 0 595.28 841.89"
   enable-background="new 0 0 595.28 841.89"
   xml:space="preserve"
   inkscape:version="0.47 r22583"
   sodipodi:docname="characters set.svg"><metadata
   id="metadata4970"><rdf:RDF><cc:Work
       rdf:about=""><dc:format>image/svg+xml</dc:format><dc:type
         rdf:resource="http://purl.org/dc/dcmitype/StillImage" /></cc:Work></rdf:RDF></metadata><defs
   id="defs4968"><inkscape:perspective
     sodipodi:type="inkscape:persp3d"
     inkscape:vp_x="0 : 420.94501 : 1"
     inkscape:vp_y="0 : 1000 : 0"
     inkscape:vp_z="595.28003 : 420.94501 : 1"
     inkscape:persp3d-origin="297.64001 : 280.63 : 1"
     id="perspective4972" /></defs><sodipodi:namedview
   pagecolor="#ffffff"
   bordercolor="#666666"
   borderopacity="1"
   objecttolerance="10"
   gridtolerance="10"
   guidetolerance="10"
   inkscape:pageopacity="0"
   inkscape:pageshadow="2"
   inkscape:window-width="1152"
   inkscape:window-height="1090"
   id="namedview4966"
   showgrid="false"
   inkscape:zoom="0.5606433"
   inkscape:cx="372.72549"
   inkscape:cy="241.27276"
   inkscape:window-x="0"
   inkscape:window-y="0"
   inkscape:window-maximized="0"
   inkscape:current-layer="Layer_1" />

















<g
   id="g5016"
   transform="translate(16.052987,-25.863146)"><polygon
     style="fill:#565248"
     transform="translate(-34.053529,-26.486078)"
     id="polygon4578"
     points="151.536,284.293 154.036,245.793 138.036,241.043 139.786,270.293 116.536,285.293 " /><polygon
     style="fill:#565248"
     transform="translate(-34.053529,-26.486078)"
     id="polygon4580"
     points="153.536,290.043 194.286,292.293 181.536,270.043 190.286,256.043 178.286,252.043 166.036,269.793 178.286,281.043 " /><polygon
     style="fill:#fdd89a"
     transform="translate(-34.053529,-26.486078)"
     id="polygon4582"
     points="150.286,170.293 136.786,213.793 211.786,224.793 220.536,171.043 227.286,125.043 164.286,106.293 154.286,137.293 122.786,166.043 " /><polygon
     style="fill:#806646"
     transform="translate(-34.053529,-26.486078)"
     id="polygon4584"
     points="160.536,115.543 211.536,130.043 202.786,167.543 220.536,173.793 242.036,121.043 224.036,106.793 163.286,105.043 " /><path
     style="fill:#ffffff"
     id="path4586"
     d="m 107.06647,170.30692 6.192,-17.75 c 0,0 18.064,0.25 14.709,12 -3.353,11.75 -13.935,7.5 -20.901,5.75 z" /><polygon
     style="fill:#336699"
     transform="translate(-34.053529,-26.486078)"
     id="polygon4588"
     points="212.786,218.543 138.637,205.043 130.286,244.293 205.7,266.543 " /><polygon
     style="fill:#6699cc"
     transform="translate(-34.053529,-26.486078)"
     id="polygon4590"
     points="168.286,232.293 201.286,216.043 165.536,209.793 " /><polygon
     style="fill:#58595b"
     transform="translate(-34.053529,-26.486078)"
     id="polygon4592"
     points="101.786,237.543 96.786,193.293 83.036,196.793 94.786,239.793 " /><ellipse
     transform="translate(-34.053529,-26.486078)"
     sodipodi:ry="5.5"
     sodipodi:rx="6.125"
     sodipodi:cy="144.793"
     sodipodi:cx="165.411"
     id="ellipse4594"
     ry="5.5"
     rx="6.125"
     cy="144.793"
     cx="165.411"
     d="m 171.536,144.793 c 0,3.03757 -2.74226,5.5 -6.125,5.5 -3.38275,0 -6.125,-2.46243 -6.125,-5.5 0,-3.03757 2.74225,-5.5 6.125,-5.5 3.38274,0 6.125,2.46243 6.125,5.5 z" /><ellipse
     transform="translate(-34.053529,-26.486078)"
     sodipodi:ry="5.625"
     sodipodi:rx="6.25"
     sodipodi:cy="150.668"
     sodipodi:cx="187.286"
     id="ellipse4596"
     ry="5.625"
     rx="6.25"
     cy="150.668"
     cx="187.286"
     d="m 193.536,150.668 c 0,3.1066 -2.79822,5.625 -6.25,5.625 -3.45178,0 -6.25,-2.5184 -6.25,-5.625 0,-3.1066 2.79822,-5.625 6.25,-5.625 3.45178,0 6.25,2.5184 6.25,5.625 z" /><path
     style="fill:#808285"
     id="path4598"
     d="m 51.232471,140.80692 c 0,0 -16,3 -11.75,20 l 4.75,12.75 22,-4.25 c 0,0 8.25,-12.75 -1.5,-22.75 0,0 -5,-7.75 -13.5,-5.75 z" /><g
     transform="translate(-34.053529,-26.486078)"
     id="g4600">
	<polygon
   id="polygon4602"
   points="82.036,172.271 82.536,195.771 80.536,195.814 80.036,172.314 " />
</g><g
     transform="translate(-34.053529,-26.486078)"
     id="g4604">
	<polygon
   id="polygon4606"
   points="88.784,168.987 90.284,195.987 88.288,196.099 86.788,169.099 " />
</g><g
     transform="translate(-34.053529,-26.486078)"
     id="g4608">
	<polygon
   id="polygon4610"
   points="95.782,173.211 97.532,194.461 95.54,194.625 93.79,173.375 " />
</g><g
     transform="translate(-34.053529,-26.486078)"
     id="g4612">
	<polygon
   id="polygon4614"
   points="100.113,185.059 100.458,187.027 76.208,191.277 75.863,189.309 " />
</g><g
     transform="translate(-34.053529,-26.486078)"
     id="g4616">
	<polygon
   id="polygon4618"
   points="99.339,175.812 99.732,177.773 74.732,182.773 74.339,180.812 " />
</g><polygon
     style="fill:#6699cc"
     transform="translate(-34.053529,-26.486078)"
     id="polygon4620"
     points="121.286,221.043 161.036,216.793 158.786,227.543 115.536,233.543 92.786,219.293 101.036,210.043 " /><path
     style="fill:#fdd89a;stroke:#fdd89a"
     id="path4622"
     d="m 68.232471,184.30692 -7.5,10 -9.75,-2.5 c 0,0 -7.75,-4.75 1.25,-8 0,0 -1.5,-6.5 3.75,-4.5 0,0 2.25,-7.25 6,-2.25 l 6.25,7.25 z" /></g>

















<g
   id="g5200"
   transform="translate(-29.008561,-39.098496)"><polygon
     id="polygon4624"
     points="206.911,469.824 228.411,458.824 230.911,467.574 205.161,482.324 185.661,463.824 188.661,447.074 "
     style="fill:#16619d" /><polygon
     id="polygon4626"
     points="262.911,487.824 301.91,464.574 273.411,406.573 234.911,429.324 "
     style="fill:#8b5e3c" /><polygon
     id="polygon4628"
     points="275.161,456.824 286.161,447.074 280.661,439.324 267.411,449.574 "
     style="fill:#6a472a" /><polygon
     id="polygon4630"
     points="236.661,433.574 262.911,487.824 272.161,482.074 277.911,446.574 "
     style="fill:#9d6a45" /><polygon
     id="polygon4632"
     points="226.161,442.574 238.161,472.824 255.911,466.074 253.661,461.074 239.911,465.824 232.161,445.574 242.411,440.324 239.161,435.324 " /><path
     id="path4634"
     d="m 225.161,459.824 c 0,0 10.5,-17.25 13.25,-9.25 0,0 7.75,0.5 5,5.75 0,0 11.5,4 -12.5,11.25 l -5.75,-7.75 z"
     style="fill:#f8aa71" /><polygon
     id="polygon4636"
     points="86.661,535.324 104.994,552.324 92.661,581.324 122.661,551.324 108.994,535.99 133.994,516.99 118.328,513.324 " /><polygon
     id="polygon4638"
     points="181.994,546.99 204.661,530.658 229.328,538.324 210.328,510.99 183.994,529.99 164.994,512.658 151.328,515.324 " /><polygon
     id="polygon4640"
     points="114.328,517.658 179.661,519.324 192.994,440.658 125.994,435.658 "
     style="fill:#1c75bc" /><polygon
     id="polygon4642"
     points="128.994,435.99 151.661,436.99 134.994,458.324 "
     style="fill:#00aeef" /><polygon
     id="polygon4644"
     points="161.994,453.324 171.661,486.658 111.994,504.99 107.328,492.324 158.328,479.99 151.328,459.658 "
     style="fill:#16619d" /><polygon
     id="polygon4646"
     points="109.328,396.657 126.994,405.657 125.328,437.99 192.328,443.658 201.994,379.324 136.994,366.99 "
     style="fill:#f8aa71" /><path
     id="path4648"
     d="m 110.911,491.074 -16,5.25 c 0,0 -8.5,6 4,4.25 0,0 -9.75,9.25 -0.5,5.75 0,0 -2.5,12.25 15.5,-3.5 l -3,-11.75 z"
     style="fill:#f8aa71" /><path
     id="path4650"
     d="m 164.411,409.823 10.5,3.75 15.25,-30.499 11,2.5 13.5,-12.75 c 0,0 -22,-10.25 -37.25,-10.75 0,0 -12.75,-3 -21,-13.75 0,0 -12.5,-15.001 -25.75,1.5 l -4.25,4.75 12.5,3.5 -7.75,14 45.25,8.25 -12,29.499 z"
     style="fill:#8b5e3c" /><polygon
     id="polygon4652"
     points="152.161,408.823 151.161,427.824 125.411,434.074 126.411,414.073 "
     style="fill:#ffffff" /><g
     id="g4654">
	<polygon
   id="polygon4656"
   points="126.916,422.853 150.666,416.854 151.156,418.794 127.406,424.794 " />
</g><g
     id="g4658">
	<polygon
   id="polygon4660"
   points="131.913,427.513 132.663,415.263 134.659,415.385 133.909,427.634 " />
</g><ellipse
     id="ellipse4662"
     ry="6.5"
     rx="7"
     cy="388.32401"
     cx="145.911"
     d="m 152.911,388.32401 c 0,3.58985 -3.13401,6.5 -7,6.5 -3.866,0 -7,-2.91015 -7,-6.5 0,-3.58986 3.134,-6.5 7,-6.5 3.86599,0 7,2.91014 7,6.5 z"
     sodipodi:cx="145.911"
     sodipodi:cy="388.32401"
     sodipodi:rx="7"
     sodipodi:ry="6.5" /></g>






















<g
   id="g5087"
   transform="translate(-13.87366,-20.179869)"><polygon
     transform="translate(5.9094275e-8,-39.098496)"
     id="polygon4664"
     points="517.739,546.074 524.229,544.164 523.084,516.296 500.559,518.585 502.086,544.546 507.049,545.31 506.667,523.931 515.83,523.931 " /><polygon
     transform="translate(5.9094275e-8,-39.098496)"
     id="polygon4666"
     points="398.627,538.82 414.28,537.292 415.425,586.921 375.722,585.396 399.009,573.943 " /><polygon
     transform="translate(5.9094275e-8,-39.098496)"
     id="polygon4668"
     points="451.694,536.146 437.569,537.673 437.569,585.013 474.217,586.16 452.074,568.597 " /><polygon
     style="fill:#003366"
     transform="translate(5.9094275e-8,-39.098496)"
     id="polygon4670"
     points="385.647,544.164 463.147,543.4 462.764,439.177 384.884,444.523 " /><path
     style="fill:#aacced"
     id="path4672"
     d="m 388.321,408.8595 c 0,0 19.088,37.797 19.47,36.27 0.382,-1.527 13.361,-28.633 13.361,-28.633 l -32.831,-7.637 z" /><polygon
     style="fill:#aacced"
     transform="translate(5.9094275e-8,-39.098496)"
     id="polygon4674"
     points="460.474,445.287 425.733,453.304 435.658,482.699 " /><g
     transform="translate(5.9094275e-8,-39.098496)"
     id="g4676">
	<polygon
   style="fill:#16619d"
   id="polygon4678"
   points="421.18,533.884 420.034,471.273 423.033,471.218 424.178,533.83 " />
</g><g
     transform="translate(5.9094275e-8,-39.098496)"
     id="g4680">
	<polygon
   style="fill:#16619d"
   id="polygon4682"
   points="446.895,521.107 432.005,514.617 433.204,511.867 448.094,518.357 " />
</g><g
     transform="translate(5.9094275e-8,-39.098496)"
     id="g4684">
	<polygon
   style="fill:#16619d"
   id="polygon4686"
   points="395.156,522.187 393.699,519.566 407.444,511.929 408.901,514.552 " />
</g><path
     style="fill:#fdd89a"
     id="path4688"
     d="m 376.104,465.7445 c 0,0 -12.979,28.631 -3.817,25.578 0,0 4.582,12.979 9.162,1.145 0,0 13.744,13.361 7.636,-25.959 l -12.981,-0.764 z" /><polygon
     style="fill:#336699;stroke:#336699"
     transform="translate(5.9094275e-8,-39.098496)"
     id="polygon4690"
     points="394.047,445.667 380.684,441.087 373.431,507.896 390.611,509.423 " /><path
     style="fill:#fdd89a"
     id="path4692"
     d="m 457.42,476.0515 13.361,-3.055 c 0,0 16.416,27.488 1.146,19.088 0,0 -2.673,16.035 -8.398,1.146 -10e-4,10e-4 -11.455,6.108 -6.109,-17.179 z" /><polygon
     style="fill:#336699"
     transform="translate(5.9094275e-8,-39.098496)"
     id="polygon4694"
     points="473.836,517.058 466.963,437.269 453.984,443.378 455.129,520.876 " /><polygon
     style="fill:#8b5e3c"
     transform="translate(5.9094275e-8,-39.098496)"
     id="polygon4696"
     points="492.924,541.875 492.16,586.16 537.209,586.541 539.5,540.347 " /><polygon
     style="fill:#9d6a45"
     transform="translate(5.9094275e-8,-39.098496)"
     id="polygon4698"
     points="529.573,586.923 531.864,540.728 539.5,540.347 537.209,586.541 " /><ellipse
     style="fill:#fdd89a"
     transform="translate(5.9094275e-8,-39.098496)"
     sodipodi:ry="44.094002"
     sodipodi:rx="54.210999"
     sodipodi:cy="417.608"
     sodipodi:cx="422.297"
     id="ellipse4700"
     ry="44.094002"
     rx="54.210999"
     cy="417.608"
     cx="422.297"
     d="m 476.508,417.608 c 0,24.35245 -24.2711,44.094 -54.211,44.094 -29.93991,0 -54.211,-19.74155 -54.211,-44.094 0,-24.35244 24.27109,-44.094 54.211,-44.094 29.9399,0 54.211,19.74156 54.211,44.094 z" /><g
     transform="translate(5.9094275e-8,-39.098496)"
     id="g4702">
	<path
   style="fill:#8b5e3c"
   id="path4704"
   d="m 410.053,424.644 h -50.721 v -31.25 h 50.721 v 31.25 l 0,0 z m -47.721,-3 h 44.721 v -25.25 h -44.721 v 25.25 l 0,0 z" />
</g><g
     transform="translate(5.9094275e-8,-39.098496)"
     id="g4706">
	<path
   style="fill:#8b5e3c"
   id="path4708"
   d="M 481.825,428.08 H 432.25 v -32.015 h 49.575 v 32.015 l 0,0 z m -46.575,-3 h 43.575 V 399.065 H 435.25 v 26.015 l 0,0 z" />
</g><g
     transform="translate(5.9094275e-8,-39.098496)"
     id="g4710">
	<path
   style="fill:#db9765"
   id="path4712"
   d="m 419.486,435.498 -1.094,-1.572 c -2.477,-3.559 -5.674,-7.727 -6.521,-8.25 0.002,0 0.188,0.113 0.5,0.113 v -3 c 0.723,0 1.795,0 7.385,7.861 l 7.143,-8.115 2.252,1.982 -9.665,10.981 0,0 z" />
</g><g
     transform="translate(5.9094275e-8,-39.098496)"
     id="g4714">
	<polygon
   style="fill:#8b5e3c"
   id="polygon4716"
   points="433.323,413.572 408.126,412.809 408.217,409.81 433.413,410.574 " />
</g><ellipse
     transform="translate(5.9094275e-8,-39.098496)"
     sodipodi:ry="4.9629998"
     sodipodi:rx="5.9169998"
     sodipodi:cy="410.547"
     sodipodi:cx="388.892"
     id="ellipse4718"
     ry="4.9629998"
     rx="5.9169998"
     cy="410.547"
     cx="388.892"
     d="m 394.809,410.547 c 0,2.74099 -2.64913,4.963 -5.917,4.963 -3.26787,0 -5.917,-2.22201 -5.917,-4.963 0,-2.74099 2.64913,-4.963 5.917,-4.963 3.26787,0 5.917,2.22201 5.917,4.963 z" /><ellipse
     transform="translate(5.9094275e-8,-39.098496)"
     sodipodi:ry="4.3909998"
     sodipodi:rx="5.1539998"
     sodipodi:cy="412.64499"
     sodipodi:cx="449.59299"
     id="ellipse4720"
     ry="4.3909998"
     rx="5.1539998"
     cy="412.64499"
     cx="449.59299"
     d="m 454.74699,412.64499 c 0,2.42508 -2.30753,4.391 -5.154,4.391 -2.84648,0 -5.154,-1.96592 -5.154,-4.391 0,-2.42508 2.30752,-4.391 5.154,-4.391 2.84647,0 5.154,1.96592 5.154,4.391 z" /><g
     transform="translate(5.9094275e-8,-39.098496)"
     id="g4722">
	<path
   style="fill:#b87f55"
   id="path4724"
   d="m 444.798,453.38 c -19.985,-18.736 -46.21,-4.34 -47.316,-3.717 l -1.966,-3.484 c 0.298,-0.168 29.871,-16.48 52.019,4.283 l -2.737,2.918 0,0 z" />
</g></g>






































<g
   id="g5041"
   transform="translate(-30.269803,-26.486078)"><polygon
     id="polygon4726"
     points="404.916,277.587 419.916,287.921 396.583,297.587 436.25,297.921 422.583,277.254 434.916,257.254 412.583,256.587 " /><polygon
     id="polygon4728"
     points="463.916,273.921 451.25,297.921 491.916,298.254 467.583,285.921 479.582,274.254 474.25,252.254 453.583,254.587 " /><polygon
     style="fill:#fdd89a"
     id="polygon4730"
     points="474.25,215.921 473.916,150.921 492.582,146.921 476.25,98.254 411.916,97.254 406.25,141.587 406.916,199.587 " /><path
     id="path4732"
     d="m 425.25,159.921 c 0,0 38.178,15.999 49.328,9.666 l 0.339,18 c 0,0 -43.586,0 -49.667,-27.666 z"
     style="fill:#ffffff" /><path
     id="path4734"
     d="m 473.916,150.921 c 0,0 -19.666,10 -25.333,-10 0,0 -11,34.666 24.999,22 0,0 28.668,17.999 33,-15.334 0,0 -18.666,18.667 -32.666,3.334 z" /><polygon
     id="polygon4736"
     points="409.25,261.921 476.582,256.587 474.25,205.254 406.583,195.587 "
     style="fill:#1c75bc" /><polygon
     id="polygon4738"
     points="436.916,241.587 432.25,256.254 416.25,250.587 420.583,241.587 "
     style="fill:#16619d" /><polygon
     id="polygon4740"
     points="465.916,238.254 468.25,252.587 455.916,253.587 455.916,242.254 "
     style="fill:#16619d" /><g
     id="g4742">
	<polygon
   id="polygon4744"
   points="447.75,253.238 448.083,220.571 451.083,220.603 450.75,253.27 "
   style="fill:#16619d" />
</g><path
     id="path4746"
     d="m 410.966,196.199 c 0,0 21.26,33.217 41.167,25.063 0,0 22.189,-0.766 20.517,-18.402 l -61.684,-6.661 z"
     style="fill:#ffffff" /><path
     id="path4748"
     d="m 376.582,278.253 c 0,0 19.334,0.334 19,-0.666 -0.332,-1 -4.666,-56 -4.666,-56 l -13,2.666 -3.334,22 2,32 z"
     style="fill:#00aeef" /><g
     id="g4750">
	<polygon
   id="polygon4752"
   points="378.086,253.347 381.08,253.159 382.413,274.493 379.419,274.681 "
   style="fill:#ffffff" />
</g><g
     id="g4754">
	<polygon
   id="polygon4756"
   points="383.754,244.692 386.746,244.481 388.746,272.815 385.754,273.026 "
   style="fill:#ffffff" />
</g><polygon
     id="polygon4758"
     points="409.25,199.587 389.916,218.587 367.25,213.587 361.25,224.587 390.583,233.921 411.916,219.253 "
     style="fill:#16619d" /><polygon
     id="polygon4760"
     points="508.582,227.921 471.25,215.254 468.916,203.254 508.25,213.921 530.582,205.921 539.916,212.921 "
     style="fill:#16619d" /><path
     style="fill:#fdd89a"
     id="path4762"
     d="m 375,216.46 -10,-5 c 0,0 -8.667,-17 -12,-7.333 0,0 -10.668,0.999 -4.668,7.333 0,0 -7.333,12.334 2,10.334 0,0 2.667,10 11,0 l 12.334,4.666 1.334,-10 z" /><polygon
     id="polygon4764"
     points="357.833,229.421 367.833,235.087 376.833,215.087 366.5,213.087 "
     style="fill:#00aeef" /><path
     id="path4766"
     d="m 372.25,214.587 c 0,0 -12.667,46 -11,45.334 1.666,-0.668 21.666,1 21.666,1 l 11,-46.668 -4,4.334 -17.666,-4 z"
     style="fill:#8bd7f8" /><g
     id="g4768">
	<polygon
   id="polygon4770"
   points="367.143,253.833 377.143,219.501 380.023,220.341 370.023,254.673 "
   style="fill:#ffffff" />
</g><g
     id="g4772">
	<path
   id="path4774"
   d="m 379.389,256.204 -2.944,-0.566 c 2.442,-12.709 6.319,-33.518 6.317,-35.253 0,0.007 10e-4,0.15 0.064,0.342 l 2.847,-0.947 c 0.148,0.445 0.456,1.371 -6.284,36.424 l 0,0 z"
   style="fill:#ffffff" />
</g><polygon
     id="polygon4776"
     points="427.582,222.253 442.916,216.587 454.582,216.587 473.916,221.921 472.582,196.253 455.582,208.921 444.916,208.253 429.916,195.587 "
     style="fill:#8bd7f8" /><polygon
     id="polygon4778"
     points="443.25,218.253 456.25,219.253 456.582,205.253 444.916,205.921 "
     style="fill:#8bd7f8" /><polygon
     id="polygon4780"
     points="520.768,231.003 536,226.337 527.731,207.671 512.5,211.671 "
     style="fill:#00aeef" /><ellipse
     id="ellipse4782"
     ry="6.8340001"
     rx="7.1669998"
     cy="121.087"
     cx="436.75"
     d="m 443.917,121.087 c 0,3.77431 -3.20878,6.834 -7.167,6.834 -3.95822,0 -7.167,-3.05969 -7.167,-6.834 0,-3.77432 3.20878,-6.834 7.167,-6.834 3.95822,0 7.167,3.05968 7.167,6.834 z"
     sodipodi:cx="436.75"
     sodipodi:cy="121.087"
     sodipodi:rx="7.1669998"
     sodipodi:ry="6.8340001" /><ellipse
     id="ellipse4784"
     ry="6.8330002"
     rx="7.1659999"
     cy="120.42"
     cx="457.41599"
     d="m 464.58198,120.42 c 0,3.77376 -3.20832,6.833 -7.16599,6.833 -3.95768,0 -7.166,-3.05924 -7.166,-6.833 0,-3.77376 3.20832,-6.833 7.166,-6.833 3.95767,0 7.16599,3.05924 7.16599,6.833 z"
     sodipodi:cx="457.41599"
     sodipodi:cy="120.42"
     sodipodi:rx="7.1659999"
     sodipodi:ry="6.8330002" /><path
     id="path4786"
     d="m 429.041,207.462 -0.75,7.625 c 0,0 6.25,1.25 6.875,-4.25 0,0 -0.375,-3.875 -6.125,-3.375 z"
     style="fill:#16619d" /><path
     id="path4788"
     d="m 437.541,202.212 4.5,3.5 c 0,0 -8.25,4 -4.5,-3.5 z"
     style="fill:#16619d" /><path
     id="path4790"
     d="m 444.291,211.962 c 0,0 7.125,0.75 4.75,6.5 l -5.791,-0.209 1.041,-6.291 z"
     style="fill:#16619d" /><path
     id="path4792"
     d="m 457.291,207.587 5.875,-4 c 0,0 3.125,3.75 0.125,5.875 0,0 -3.625,3.5 -6,-1.875 z"
     style="fill:#16619d" /><path
     id="path4794"
     d="m 458.666,217.587 7,1.875 c 0,0 0.75,-2.75 -2.125,-4.875 -2.875,-2.125 -4.25,1.5 -4.875,3 z"
     style="fill:#16619d" /><path
     id="path4796"
     d="m 473.291,206.087 0.25,7.625 c 0,0 -4.25,1.125 -5.375,-3.5 0,0 -0.25,-4.75 5.125,-4.125 z"
     style="fill:#16619d" /><path
     id="path4798"
     d="m 402.916,153.921 c 0,0 -0.666,-55 -4.333,-60.667 l 15.333,-8.333 1.667,3.333 c 0,0 60.999,-4.333 62.999,-3.333 l -0.332,-4 c 0,0 -6.668,1 -7.334,-2.667 0,0 9,-10.333 13,-6.333 0,0 21,14.666 -5.666,33 l -59.667,2.333 c 0,0 -5.667,42.333 -1.333,45.667 l -14.334,1 z" /><path
     id="path4800"
     d="m 503.582,204.253 c 0,0 39.668,32.334 75.334,7 0,0 17.666,-29.666 -39.334,-25.666 0,0 -50.334,2.333 -36,18.666 z"
     style="fill:#808285" /><path
     id="path4802"
     d="m 509.916,200.253 c 0,0 34,26 55.334,10.334 0,0 12.666,-13.667 -5.334,-16.334 0,0 -58.666,-3.333 -50,6 z"
     style="fill:#939598" /><path
     id="path4804"
     d="m 558.25,192.921 -1,13 c 0,0 9.332,4.333 12.332,0 l 0.334,-13.334 c 0,0 -6.666,-5.333 -11.666,0.334 z"
     style="fill:#8bd7f8" /><path
     id="path4806"
     d="m 534.25,166.253 -2.334,35.334 c 0,0 11.332,8.334 18.666,0 l 5.334,-36.334 3.666,-4.666 -9.666,-1.334 2.666,-23 -10.666,4.334 0.666,19.334 -8.332,6.332 z"
     style="fill:#8bd7f8" /><path
     id="path4808"
     d="m 513.916,194.253 0.666,13.668 c 0,0 6.334,6.666 11.334,-0.668 l 1,-11.666 c 0,0 -6.334,-6.334 -13,-1.334 z"
     style="fill:#8bd7f8" /><path
     id="path4810"
     d="m 513.582,195.587 c 0,0 3,15.334 13.334,0 0,0 -9,-7 -13.334,0 z"
     style="fill:#ffffff" /><path
     id="path4812"
     d="m 557.916,194.253 c 0,0 8.666,7.668 12,-1.666 0,0 -7,-5.666 -11.666,0.334"
     style="fill:#ffffff" /></g>
































<g
   id="g5155"
   transform="translate(22.702352,-15.134906)"><path
     id="path4814"
     d="m 218.523,755.962 c -0.796,0.795 -25.744,18.844 -25.744,18.844 l -12.207,-16.986 6.899,20.701 -0.797,18.049 12.74,-12.74 14.331,2.389 2.654,14.068 4.512,-12.209 16.455,2.652 6.636,15.926 2.122,-20.701 -27.601,-29.993 z"
     style="fill:#939598" /><g
     id="g4816">
	<path
   id="path4818"
   d="m 210.277,760.513 c -10.886,0 -23.917,-7.896 -30.135,-11.664 -1.15,-0.695 -2.343,-1.418 -2.649,-1.539 0.003,0.002 0.07,0.027 0.186,0.047 l 0.518,-2.959 c 0.603,0.096 1.248,0.477 3.629,1.92 6.562,3.977 24.001,14.541 34.053,10.139 l 1.308,2.727 c -2.129,0.931 -4.465,1.329 -6.91,1.329 l 0,0 z" />
</g><path
     id="path4820"
     d="m 64.325,740.833 c 0.268,0.797 -0.796,31.053 -0.796,31.053 l 15.394,1.062 1.594,-33.707 -16.192,1.592 z"
     style="fill:#6a472a" /><path
     id="path4822"
     d="m 112.894,741.63 c 1.063,-0.264 15.396,0.268 15.396,0.268 l -1.328,34.502 -14.331,0.529 0.263,-35.299 z"
     style="fill:#6a472a" /><path
     id="path4824"
     d="m 63.796,766.048 -1.062,12.207 -26.274,13.272 c 0,0 43.161,1.061 42.729,0.529 -0.433,-0.529 0.267,-26.541 0.267,-26.541 l -15.66,0.533 z" /><polygon
     id="polygon4826"
     points="147.396,790.996 126.96,776.4 127.757,768.171 112.629,769.234 112.364,791.261 " /><path
     id="path4828"
     d="m 58.223,672.097 c 0,1.326 -3.45,73.516 -3.45,73.516 0,0 80.15,5.84 79.887,4.512 -0.267,-1.328 0.796,-79.887 0.796,-79.887 l -77.233,1.859 z"
     style="fill:#9d6a45" /><polygon
     id="polygon4830"
     points="52.649,666.787 63,667.583 64.06,739.242 48.668,738.445 "
     style="fill:#6a472a" /><path
     id="path4832"
     d="m 128.288,697.308 c 1.061,0.268 32.113,42.199 32.645,41.402 0.53,-0.795 10.881,-9.287 10.881,-9.287 l -39.81,-54.938 -3.716,22.823 z"
     style="fill:#6a472a" /><ellipse
     sodipodi:ry="44.588001"
     sodipodi:rx="51.355"
     sodipodi:cy="647.14801"
     sodipodi:cx="97.102997"
     style="fill:#fdd89a"
     id="ellipse4834"
     ry="44.588001"
     rx="51.355"
     cy="647.14801"
     cx="97.102997"
     d="m 148.458,647.14801 c 0,24.62527 -22.99242,44.588 -51.355003,44.588 -28.362583,0 -51.355,-19.96273 -51.355,-44.588 0,-24.62527 22.992417,-44.588 51.355,-44.588 28.362583,0 51.355003,19.96273 51.355003,44.588 z" /><ellipse
     sodipodi:ry="8.0959997"
     sodipodi:rx="7.829"
     sodipodi:cy="650.46399"
     sodipodi:cx="47.473"
     style="fill:#fdd89a"
     id="ellipse4836"
     ry="8.0959997"
     rx="7.829"
     cy="650.46399"
     cx="47.473"
     d="m 55.302,650.46399 c 0,4.4713 -3.505163,8.096 -7.829,8.096 -4.323838,0 -7.829,-3.6247 -7.829,-8.096 0,-4.4713 3.505162,-8.096 7.829,-8.096 4.323837,0 7.829,3.6247 7.829,8.096 z" /><ellipse
     sodipodi:ry="8.625"
     sodipodi:rx="10.086"
     sodipodi:cy="645.42297"
     sodipodi:cx="144.21201"
     style="fill:#fdd89a;stroke:#fdd89a"
     id="ellipse4838"
     ry="8.625"
     rx="10.086"
     cy="645.42297"
     cx="144.21201"
     d="m 154.29801,645.42297 c 0,4.76346 -4.51566,8.625 -10.086,8.625 -5.57035,0 -10.086,-3.86154 -10.086,-8.625 0,-4.76345 4.51565,-8.625 10.086,-8.625 5.57034,0 10.086,3.86155 10.086,8.625 z" /><ellipse
     id="ellipse4840"
     ry="5.4380002"
     rx="6.5029998"
     cy="650.99701"
     cx="72.950996"
     d="m 79.453996,650.99701 c 0,3.00332 -2.911492,5.438 -6.503,5.438 -3.591507,0 -6.502999,-2.43468 -6.502999,-5.438 0,-3.00333 2.911492,-5.438 6.502999,-5.438 3.591508,0 6.503,2.43467 6.503,5.438 z"
     sodipodi:cx="72.950996"
     sodipodi:cy="650.99701"
     sodipodi:rx="6.5029998"
     sodipodi:ry="5.4380002" /><ellipse
     id="ellipse4842"
     ry="6.2350001"
     rx="6.6350002"
     cy="651.79303"
     cx="112.364"
     d="m 118.999,651.79303 c 0,3.4435 -2.97059,6.235 -6.635,6.235 -3.66441,0 -6.635,-2.7915 -6.635,-6.235 0,-3.4435 2.97059,-6.235 6.635,-6.235 3.66441,0 6.635,2.7915 6.635,6.235 z"
     sodipodi:cx="112.364"
     sodipodi:cy="651.79303"
     sodipodi:rx="6.6350002"
     sodipodi:ry="6.2350001" /><g
     id="g4844">
	<path
   id="path4846"
   d="M 104.089,679.167 C 97.1,678.948 78.813,678.376 78.128,678.374 v -3 c 0.796,0 23.472,0.713 26.055,0.795 l -0.094,2.998 0,0 z"
   style="fill:#db9765" />
</g><g
     id="g4848">
	<path
   id="path4850"
   d="m 91.023,663.289 -0.831,-0.98 c -1.798,-2.115 -4.674,-5.463 -5.226,-6.016 l 2.121,-2.121 c 0.625,0.625 3.186,3.609 4.557,5.217 l 7.135,-4.375 1.568,2.561 -9.324,5.714 0,0 z"
   style="fill:#db9765" />
</g><polygon
     id="polygon4852"
     points="96.704,672.626 87.682,672.626 87.682,665.726 96.704,665.46 " /><g
     id="g4854">
	<path
   id="path4856"
   d="m 102.754,644.855 -0.951,-2.846 c 0.795,-0.266 15.653,-5.307 15.654,-5.307 l 0.963,2.842 c 0,0 -14.871,5.045 -15.666,5.311 l 0,0 z" />
</g><g
     id="g4858">
	<polygon
   id="polygon4860"
   points="64.807,638.031 79.67,643.072 78.707,645.914 63.844,640.873 " />
</g><path
     id="path4862"
     d="m 46.81,638.125 25.213,-0.531 10.884,-14.332 -2.655,14.6 c 0,0 45.118,-11.945 64.228,-6.902 0,0 -10.352,-32.377 -55.203,-28.131 -0.003,-0.003 -33.443,3.18 -42.467,35.296 z" /><path
     id="path4864"
     d="m 66.714,703.679 c 0.797,-0.266 16.19,0.266 16.19,0.266 l -11.146,12.738 -5.044,-13.004 z"
     style="fill:#8b5e3c" /><path
     id="path4866"
     d="m 102.278,704.474 17.518,0.797 c 0,0 -9.022,14.332 -9.022,13.535 -0.002,-0.797 -8.496,-14.332 -8.496,-14.332 z"
     style="fill:#8b5e3c" /><g
     id="g4868">
	<polygon
   id="polygon4870"
   points="90.959,698.085 93.959,698.123 93.427,741.916 90.427,741.878 "
   style="fill:#6a472a" />
</g><path
     style="fill:#fdd89a"
     id="path4872"
     d="m 48.402,734.73 c 0,0 -5.839,10.352 0.53,11.943 0,0 1.857,9.82 8.758,2.654 0,0 6.636,4.441 6.636,-7.166 0,-0.797 -1.325,-9.557 -1.325,-9.557 l -14.599,2.126 z" /><path
     style="fill:#fdd89a"
     id="path4874"
     d="m 157.481,732.607 c 0,0 1.593,23.619 7.696,17.252 0,0 11.677,11.145 12.739,-3.982 0,0 7.434,3.186 3.717,-6.104 l -14.067,-15.129 -10.085,7.963 z" /><path
     id="path4876"
     d="m 214.276,737.119 c 0.215,0.854 1.114,21.619 1.457,29.719 0.084,1.971 0.137,3.191 0.137,3.191 0,0 30.258,-3.186 29.99,-3.98 -0.266,-0.797 -0.796,-22.029 -0.796,-22.029 l -6.9,-22.824 -9.819,18.58 -9.023,-19.906 -5.046,17.249 z"
     style="fill:#808285" /><path
     id="path4878"
     d="m 215.073,778.789 c 0,0 30.478,12.738 31.016,11.941 0.539,-0.797 0.271,-24.684 0.271,-24.684 l -30.478,3.982 -0.809,8.761 z"
     style="fill:#ffffff" /><g
     id="g4880">
	<polygon
   id="polygon4882"
   points="244.328,770.667 244.74,773.638 217.934,777.353 217.521,774.382 " />
</g><g
     id="g4884">
	<polygon
   id="polygon4886"
   points="222.141,770.945 222.938,779.173 219.951,779.462 219.154,771.234 " />
</g><g
     id="g4888">
	<polygon
   id="polygon4890"
   points="228.969,769.96 231.965,770.099 231.435,781.509 228.438,781.371 " />
</g><g
     id="g4892">
	<polygon
   id="polygon4894"
   points="241.257,768.943 241.521,785.396 238.521,785.445 238.257,768.992 " />
</g><ellipse
     id="ellipse4896"
     ry="3.849"
     rx="4.3790002"
     cy="749.45898"
     cx="221.576"
     d="m 225.955,749.45898 c 0,2.12575 -1.96054,3.849 -4.379,3.849 -2.41845,0 -4.379,-1.72325 -4.379,-3.849 0,-2.12574 1.96055,-3.849 4.379,-3.849 2.41846,0 4.379,1.72326 4.379,3.849 z"
     sodipodi:cx="221.576"
     sodipodi:cy="749.45898"
     sodipodi:rx="4.3790002"
     sodipodi:ry="3.849" /><ellipse
     id="ellipse4898"
     ry="4.513"
     rx="4.9099998"
     cy="750.38898"
     cx="237.76601"
     d="m 242.67601,750.38898 c 0,2.49246 -2.19829,4.513 -4.91,4.513 -2.71172,0 -4.91,-2.02054 -4.91,-4.513 0,-2.49246 2.19828,-4.513 4.91,-4.513 2.71171,0 4.91,2.02054 4.91,4.513 z"
     sodipodi:cx="237.76601"
     sodipodi:cy="750.38898"
     sodipodi:rx="4.9099998"
     sodipodi:ry="4.513" /></g>





























<g
   id="g5120"
   transform="translate(2.5224839,-11.351176)"><g
     id="g4900">
	<line
   id="line4902"
   y2="773.17499"
   x2="343.565"
   y1="665.70099"
   x1="347.02301"
   style="fill:none" />
	<polygon
   id="polygon4904"
   points="345.739,665.66 348.307,665.742 344.85,773.216 342.281,773.134 "
   style="fill:#16619d" />
</g><path
     id="path4906"
     d="M 383.476,782.603 380.018,809 360.85,814.656 c 0,0 -5.028,-22.312 -18.228,-8.17 0,0 -11.941,15.398 8.799,14.77 l 40.226,-5.027 2.828,-33.939 -10.999,0.313 z"
     style="fill:#ef4136" /><path
     id="path4908"
     d="m 434.384,778.203 c 0,0 0,39.281 0,38.34 0,-0.943 35.511,0.941 35.511,0.941 0,0 12.57,-5.027 5.344,-17.912 0,0 -15.085,-3.771 -14.771,11.312 l -13.199,-3.771 -3.141,-31.738 -9.744,2.828 z"
     style="fill:#ef4136" /><polygon
     id="polygon4910"
     points="382.847,729.496 353.307,764.376 362.735,768.462 388.503,734.521 "
     style="fill:#fb8a00" /><polygon
     id="polygon4912"
     points="480.579,719.125 467.696,730.751 434.07,729.808 435.642,741.435 472.408,740.806 487.807,723.208 "
     style="fill:#fb8a00" /><polygon
     id="polygon4914"
     points="386.304,728.55 436.584,724.466 449.782,779.46 378.447,787.945 "
     style="fill:#fdca01" /><polygon
     id="polygon4916"
     points="383.835,770.66 394.281,749.605 402.367,766.261 403.378,750.863 419.552,765.318 418.204,748.978 433.03,758.406 429.659,745.207 443.813,757.462 436.399,727.609 385.185,737.978 371.705,760.919 387.542,747.091 "
     style="fill:#fd3301" /><ellipse
     sodipodi:ry="36.139"
     sodipodi:rx="40.695999"
     sodipodi:cy="708.125"
     sodipodi:cx="407.202"
     style="fill:#fdd89a"
     id="ellipse4918"
     ry="36.139"
     rx="40.695999"
     cy="708.125"
     cx="407.202"
     d="m 447.89799,708.125 c 0,19.95902 -18.22021,36.139 -40.69599,36.139 -22.47578,0 -40.696,-16.17998 -40.696,-36.139 0,-19.95902 18.22022,-36.139 40.696,-36.139 22.47578,0 40.69599,16.17998 40.69599,36.139 z" /><ellipse
     sodipodi:ry="5.6550002"
     sodipodi:rx="6.599"
     sodipodi:cy="709.06702"
     sodipodi:cx="368.70599"
     style="fill:#fdd89a"
     id="ellipse4920"
     ry="5.6550002"
     rx="6.599"
     cy="709.06702"
     cx="368.70599"
     d="m 375.30499,709.06702 c 0,3.12317 -2.95447,5.655 -6.599,5.655 -3.64452,0 -6.599,-2.53183 -6.599,-5.655 0,-3.12317 2.95448,-5.655 6.599,-5.655 3.64453,0 6.599,2.53183 6.599,5.655 z" /><ellipse
     sodipodi:ry="4.3990002"
     sodipodi:rx="6.756"
     sodipodi:cy="699.95398"
     sodipodi:cx="446.797"
     style="fill:#fdd89a;stroke:#fdd89a"
     id="ellipse4922"
     ry="4.3990002"
     rx="6.756"
     cy="699.95398"
     cx="446.797"
     d="m 453.553,699.95398 c 0,2.4295 -3.02477,4.399 -6.756,4.399 -3.73124,0 -6.756,-1.9695 -6.756,-4.399 0,-2.4295 3.02476,-4.399 6.756,-4.399 3.73123,0 6.756,1.9695 6.756,4.399 z" /><ellipse
     id="ellipse4924"
     ry="7.6989999"
     rx="12.1"
     cy="712.367"
     cx="410.34299"
     d="m 422.44299,712.367 c 0,4.25204 -5.41736,7.699 -12.1,7.699 -6.68265,0 -12.1,-3.44696 -12.1,-7.699 0,-4.25204 5.41735,-7.699 12.1,-7.699 6.68264,0 12.1,3.44696 12.1,7.699 z"
     sodipodi:cx="410.34299"
     sodipodi:cy="712.367"
     sodipodi:rx="12.1"
     sodipodi:ry="7.6989999"
     style="fill:#ef4136" /><ellipse
     id="ellipse4926"
     ry="8.7989998"
     rx="8.9569998"
     cy="701.21002"
     cx="387.08899"
     d="m 396.04599,701.21002 c 0,4.85956 -4.01019,8.799 -8.957,8.799 -4.94682,0 -8.957,-3.93944 -8.957,-8.799 0,-4.85955 4.01018,-8.799 8.957,-8.799 4.94681,0 8.957,3.93945 8.957,8.799 z"
     sodipodi:cx="387.08899"
     sodipodi:cy="701.21002"
     sodipodi:rx="8.9569998"
     sodipodi:ry="8.7989998"
     style="fill:#ffffff" /><ellipse
     id="ellipse4928"
     ry="10.057"
     rx="8.6429996"
     cy="698.69702"
     cx="427.62701"
     d="m 436.27001,698.69702 c 0,5.55433 -3.8696,10.057 -8.643,10.057 -4.77339,0 -8.643,-4.50267 -8.643,-10.057 0,-5.55433 3.86961,-10.057 8.643,-10.057 4.7734,0 8.643,4.50267 8.643,10.057 z"
     sodipodi:cx="427.62701"
     sodipodi:cy="698.69702"
     sodipodi:rx="8.6429996"
     sodipodi:ry="10.057"
     style="fill:#ffffff" /><ellipse
     id="ellipse4930"
     ry="2.671"
     rx="2.9860001"
     cy="696.65503"
     cx="426.685"
     d="m 429.671,696.65503 c 0,1.47515 -1.33688,2.671 -2.986,2.671 -1.64912,0 -2.986,-1.19585 -2.986,-2.671 0,-1.47515 1.33688,-2.671 2.986,-2.671 1.64912,0 2.986,1.19585 2.986,2.671 z"
     sodipodi:cx="426.685"
     sodipodi:cy="696.65503"
     sodipodi:rx="2.9860001"
     sodipodi:ry="2.671" /><ellipse
     id="ellipse4932"
     ry="2.5150001"
     rx="2.8280001"
     cy="700.89697"
     cx="389.76001"
     d="m 392.58801,700.89697 c 0,1.389 -1.26614,2.515 -2.828,2.515 -1.56186,0 -2.828,-1.126 -2.828,-2.515 0,-1.38899 1.26614,-2.515 2.828,-2.515 1.56186,0 2.828,1.12601 2.828,2.515 z"
     sodipodi:cx="389.76001"
     sodipodi:cy="700.89697"
     sodipodi:rx="2.8280001"
     sodipodi:ry="2.5150001" /><ellipse
     id="ellipse4934"
     ry="18.225"
     rx="8.8000002"
     cy="731.35797"
     cx="412.341"
     transform="matrix(-0.0963,-0.9954,0.9954,-0.0963,-275.923,1212.193)"
     d="m 421.141,731.35797 c 0,10.06539 -3.93989,18.225 -8.8,18.225 -4.8601,0 -8.8,-8.15961 -8.8,-18.225 0,-10.06539 3.9399,-18.225 8.8,-18.225 4.86011,0 8.8,8.15961 8.8,18.225 z"
     sodipodi:cx="412.341"
     sodipodi:cy="731.35797"
     sodipodi:rx="8.8000002"
     sodipodi:ry="18.225"
     style="fill:#ffffff" /><g
     id="g4936">
	<path
   id="path4938"
   d="m 409.998,733.552 c -2.98,0 -5.616,-1.062 -7.112,-2.039 l 1.403,-2.152 -0.701,1.076 0.698,-1.078 c 0.264,0.168 6.498,4.09 11.955,-0.818 l 1.719,1.91 c -2.57,2.312 -5.393,3.101 -7.962,3.101 l 0,0 z"
   style="fill:#ef4136" />
</g><path
     style="fill:#fdd89a"
     id="path4940"
     d="m 363.364,765.632 c 0,0 -2.829,22.627 -7.855,12.256 0,0 -8.173,16.342 -6.286,-1.57 0,0 -23.884,7.857 4.085,-11.941 l 5.656,-4.084 4.4,5.339 z" /><path
     style="fill:#fdd89a"
     id="path4942"
     d="m 479.636,722.265 2.828,-17.281 c 0,0 3.771,-11.314 3.771,2.197 0,0 7.228,-9.428 2.515,3.145 0,0 14.455,-2.516 7.855,3.457 l -12.256,10.998 -4.713,-2.516 z" /><path
     style="fill:#d40000"
     id="path4944"
     d="m 351.11549,667.57852 c 0,0 27.969,-10.057 24.197,-64.736 0,0 -3.771,-19.797 -27.969,-19.168 0,0 -29.854,1.57 -28.282,36.768 0,-0.003 2.201,49.335 32.054,47.136 z" /><path
     id="path4946"
     d="m 336.337,678.9 c 0.943,-0.314 9.428,-13.199 9.428,-13.199 l -0.628,12.256 -8.8,0.943 z"
     style="fill:#ef4136" /><path
     id="path4948"
     d="m 473.037,688.169 c 0,0 -19.798,16.971 -9.663,24.512 10.135,7.543 16.733,-12.256 13.434,-21.445 0,0 0.473,-3.771 -2.355,3.062 -2.828,6.833 -8.721,16.262 -6.6,3.771 l 6.835,-5.893 -1.651,-4.007 z"
     style="fill:#fbb040" /><path
     id="path4950"
     d="m 478.458,686.285 c 0,0 4.949,0.941 20.976,7.777 16.027,6.836 26.869,11.783 29.935,13.67 3.062,1.887 8.956,4.715 5.185,8.955 -3.771,4.242 -8.484,5.422 -16.025,2.828 -7.542,-2.592 -22.626,-11.311 -26.162,-13.434 -3.535,-2.121 -12.491,-8.25 -12.963,-9.191 -0.474,-0.943 -15.324,-12.492 -0.946,-10.605 z"
     style="fill:#fbb040" /><path
     id="path4952"
     d="m 534.08,713.861 c 0,0 7.542,-10.844 9.663,-8.25 2.121,2.594 -6.835,11.312 -10.134,9.428 -3.302,-1.887 -0.943,0.941 -0.943,0.941 0,0 13.198,5.893 16.263,-6.834 3.064,-12.729 -1.414,-18.619 -6.6,-13.199 -5.185,5.422 -10.37,16.5 -10.37,16.5 l 2.121,1.414 z"
     style="fill:#fbb040" /><path
     id="path4954"
     d="m 527.717,729.886 c 0,0 11.077,18.385 15.557,2.594 0,0 6.6,-20.27 -14.143,-16.971 v 1.414 c 0,0 13.436,1.18 10.606,6.129 -2.83,4.949 -4.243,7.541 -4.714,5.42 -0.473,-2.121 1.413,-4.713 1.648,-6.361 0.235,-1.65 -7.542,-4.242 -7.542,-4.242 0,0 4.949,0.234 3.3,3.299 -1.648,3.064 -4.712,7.07 -4.712,8.718 z"
     style="fill:#fbb040" /><path
     id="path4956"
     d="m 474.451,688.169 c 0,0 -9.427,-17.205 14.142,-21.447 0,0 6.835,-1.178 7.07,3.771 0.236,4.949 -11.785,17.205 -17.205,17.439 0,0 8.484,-4.479 5.893,-9.664 -2.593,-5.184 -12.728,1.18 -8.014,9.9 h -1.886 l 0,10e-4 z"
     style="fill:#fbb040" /><path
     id="path4958"
     d="m 462.549,677.261 c 0,0 -0.239,3.551 -0.027,7.223 0.301,5.252 1.521,10.75 5.685,6.447 l 8.957,-0.941 c 0,0 -6.599,4.479 -11.077,-14.377 -4.478,-18.856 -12.021,-37.475 -18.384,-30.168 -6.363,7.305 -1.414,9.191 3.063,15.084 4.479,5.893 6.6,9.189 6.6,9.189 0,0 2.12,7.307 5.183,7.543"
     style="fill:#fbb040" /><path
     id="path4960"
     d="m 464.552,674.265 c 0,0 19.326,-1.18 17.441,-11.785 0,0 -8.956,-5.422 -16.969,9.664 l -0.472,2.121 z"
     style="fill:#fbb040" /><path
     id="path4962"
     d="m 366.977,702.076 c 0,0 46.666,-16.027 77.542,-8.25 0,0 -8.484,-21.211 -40.065,-22.154 -0.002,-10e-4 -32.763,1.886 -37.477,30.404 z"
     style="fill:#fdca01" /><ellipse
     id="ellipse4964"
     ry="8.6420002"
     rx="10.842"
     cy="666.80103"
     cx="404.37299"
     d="m 415.21499,666.80103 c 0,4.77284 -4.85413,8.642 -10.842,8.642 -5.98788,0 -10.842,-3.86916 -10.842,-8.642 0,-4.77285 4.85412,-8.642 10.842,-8.642 5.98787,0 10.842,3.86915 10.842,8.642 z"
     sodipodi:cx="404.37299"
     sodipodi:cy="666.80103"
     sodipodi:rx="10.842"
     sodipodi:ry="8.6420002"
     style="fill:#fdca01;stroke:#fdca01" /></g>
</svg>